<?xml version="1.0" encoding="utf-8"?>
<!-- Generator: Adobe Illustrator 28.1.0, SVG Export Plug-In . SVG Version: 6.00 Build 0)  -->
<svg version="1.1" id="Layer_1" xmlns="http://www.w3.org/2000/svg" xmlns:xlink="http://www.w3.org/1999/xlink" x="0px" y="0px"
	 viewBox="0 0 110 40" style="enable-background:new 0 0 110 40;" xml:space="preserve">
<style type="text/css">
	.st0{fill:#5C2483;}
</style>
<g>
	<g>
		<path class="st0" d="M99.1,30.8c-1.1,0-2-0.5-2.8-1.5s-1.4-2.3-1.9-4.1c-0.4-1.8-0.6-3.9-0.6-6.3s0.2-4.5,0.6-6.3s1.1-3.2,1.9-4.1
			C97.1,7.5,98,7,99.1,7c1,0,1.8,0.5,2.6,1.5c0.8,1,1.3,2.2,1.7,3.8c0.1,0.3,0.3,0.4,0.6,0.3l0,0c0.2-0.1,0.3-0.3,0.2-0.5
			c-0.5-1.5-1.1-2.8-1.5-3.5c-0.2-0.5,0.2-1.1,0.8-1.1h3c1.2,0,2.1,1,2.1,2.1v18.7c0,1.2-1,2.1-2.1,2.1h-3c-0.6,0-1-0.6-0.8-1.1
			c0.5-1.1,1-2.1,1.4-3.1c0.1-0.3-0.2-0.6-0.5-0.5l0,0c-0.1,0-0.2,0.2-0.3,0.3c-0.3,1.4-0.9,2.5-1.6,3.4
			C100.9,30.3,100.1,30.8,99.1,30.8z M101,26.2c0.5,0,0.8-0.5,1-1.6s0.3-3,0.3-5.7s-0.1-4.6-0.3-5.7c-0.2-1.1-0.5-1.6-1-1.6
			s-1,0.5-1.1,1.6c-0.2,1.1-0.4,3-0.4,5.7s0.2,4.6,0.4,5.7C100.1,25.6,100.6,26.2,101,26.2z"/>
	</g>
	<path class="st0" d="M1.3,28.6V9.7c0.1-1.3,1.2-2.3,2.4-2.3H8C8.5,7.3,9,7.6,9.1,8c2.4,5.2,4.1,10.5,5.2,16.1c0,0.5,0.6,0.5,0.6,0
		c-0.4-5.1-1.4-10.2-3.1-15.2c-0.2-0.7,0.3-1.5,1.1-1.5h3.7c1.5,0,2.6,1.4,2.1,2.9C17.3,15.4,17,21,18.9,28c0.4,1.4-0.7,2.8-2.2,2.8
		h-4.4c-0.4,0-0.9-0.3-1.1-0.6C8.6,24.7,6.9,19.3,6.1,14c0-0.5-0.6-0.5-0.6,0c0.3,4.5,1.3,9.7,3.1,15.2c0.2,0.7-0.3,1.5-1.1,1.5H3.7
		C2.5,30.8,1.4,29.9,1.3,28.6z"/>
	<path class="st0" d="M1.3,28.6V9.7c0.1-1.3,1.2-2.3,2.4-2.3H8C8.5,7.3,9,7.6,9.1,8c2.4,5.2,4.1,10.5,5.2,16.1c0,0.5,0.6,0.5,0.6,0
		c-0.4-5.1-1.4-10.2-3.1-15.2c-0.2-0.7,0.3-1.5,1.1-1.5h3.7c1.5,0,2.6,1.4,2.1,2.9C17.3,15.4,17,21,18.9,28c0.4,1.4-0.7,2.8-2.2,2.8
		h-4.4c-0.4,0-0.9-0.3-1.1-0.6C8.6,24.7,6.9,19.3,6.1,14c0-0.5-0.6-0.5-0.6,0c0.3,4.5,1.3,9.7,3.1,15.2c0.2,0.7-0.3,1.5-1.1,1.5H3.7
		C2.5,30.8,1.4,29.9,1.3,28.6z"/>
	<path class="st0" d="M29,22.3c-0.2,0-0.4,0.2-0.4,0.4c0.1,1.3,0,4.3-1.4,4.1c-0.7-0.1-0.9-0.8-1.1-2.1c-0.2-0.9-0.3-2.1-0.3-3.6
		c0-0.2,0.2-0.4,0.4-0.4h5.5c1.5-0.1,2.6-0.7,2.6-4.5c0-2.2-0.3-3.8-0.9-5.2C32.8,9.7,32,8.6,31,7.9s-2.2-1.1-3.5-1.1
		c-1.7,0-3.1,0.5-4.4,1.4c-1.2,1-2.1,2.3-2.8,4.2c-0.6,1.8-1,4-1,6.6s0.3,4.7,1,6.6s1.6,3.2,2.8,4.2c1.2,1,2.7,1.4,4.4,1.4
		c1.2,0,2.3-0.3,3.3-0.9s1.7-1.4,2.3-2.4c0.8-1.4,1-3.6,1.1-5.6c0-0.3-0.3-0.5-0.6-0.3C32.7,22.4,31.5,22.3,29,22.3z M27.9,17.4
		h-1.7c-0.2,0-0.4-0.2-0.4-0.4c0.1-1.6,0.2-2.8,0.3-3.7c0.2-1.3,0.6-1.9,1.1-1.9c0.4,0,0.7,0.4,0.8,1.2s0.2,2,0.2,3.7V17
		C28.3,17.2,28.1,17.4,27.9,17.4z"/>
	<path class="st0" d="M33.8,37.3c2.7-12.2,3.3-24.5,0.2-28.9c-0.3-0.4,0-1.1,0.5-1.1c1.7,0,4.4,0,6.1,0c0.5,0,0.9,0.6,0.5,1.1
		c-0.7,1-1.2,2.1-1.5,3.5c-0.1,0.3,0.1,0.5,0.4,0.5h0.1c0.2,0,0.4-0.1,0.4-0.3c0.4-1.5,1.1-2.7,1.8-3.7c0.8-1,1.8-1.5,2.8-1.5
		c1.1,0,2,0.5,2.9,1.5s1.5,2.4,1.9,4.2s0.6,4,0.6,6.4s-0.2,4.6-0.6,6.4c-0.4,1.8-1.1,3.2-1.9,4.2c-0.8,1-1.8,1.5-2.9,1.5
		c-1,0-1.9-0.5-2.7-1.5c-0.7-1-1.3-2.2-1.7-3.7c0-0.2-0.2-0.3-0.4-0.3l0,0c-0.3,0-0.5,0.3-0.4,0.5c0.5,2,1.9,4.3,1.9,6.8
		c0,2-4.9,4.2-7.2,5.1C34.2,38.3,33.7,37.8,33.8,37.3z M42.9,26.6c0.5,0,0.8-0.5,1-1.7c0.2-1.1,0.3-3,0.3-5.8s-0.1-4.7-0.3-5.8
		s-0.5-1.7-1-1.7s-0.8,0.5-1,1.7c-0.2,1.1-0.3,3.1-0.3,5.8s0.1,4.7,0.3,5.8C42.1,26,42.5,26.6,42.9,26.6z"/>
	<path class="st0" d="M65.9,9.6c0.1,0.5,0.1,1,0.2,1.6c0,0.5-0.3,0.9-0.8,0.9h-5.9c-0.2,0-0.3,0.1-0.3,0.3V24c0,1,0.1,1.7,0.2,2.1
		c0.1,0.4,0.6,0.6,0.8,0.6c2.7,0,0.9-3.5,0.4-5.7c-0.1-0.5,0.2-0.9,0.7-0.9c1.4-0.1,2.8-0.4,3.8-0.8c0.5-0.2,1.1,0.2,1.1,0.8
		c-0.3,3.7-1.2,11.2-6.3,11.2c-2.2,0-3.8-0.6-5-1.9c-1.1-1.3-1.7-3.1-1.7-5.6V12.3c0-0.2-0.1-0.3-0.3-0.3h-0.5c-0.6,0-1.1-0.4-1.3-1
		c-0.3-0.7-0.6-1.7-1-2.4c-0.3-0.6,0-1.4,0.8-1.4h12.4C64.6,7.3,65.7,8.3,65.9,9.6z"/>
	<path class="st0" d="M79.4,30.8h3.3c1,0,1.8-0.8,1.8-1.8V15.3c0-0.9,0.3-1.8,0.9-2.6c0-0.1,0.1-0.1,0.1-0.1
		c0.3-0.4,0.5-0.6,0.8-0.6c0.2,0,0.3,0.1,0.5,0.3c0.1,0.2,0.2,0.5,0.2,1c-0.1,6-0.2,11.6-0.1,15.7c0,1,0.8,1.7,1.8,1.7
		c0.8,0,1.8,0,2.7,0c1.1,0,1.9-0.9,1.7-2C90.5,11,94.5,11.1,92.9,8.2c-0.5-1-1.4-1.4-2.3-1.4c-1,0-2.9,0.2-4.1,1.5
		c-0.9,0.9-1.8,2.2-2.5,3.8c-0.1,0.2-0.2,0.3-0.4,0.3l0,0c-0.3,0-0.5-0.3-0.4-0.5c0.2-0.8,0.5-1.5,0.7-2.1c0.5-1.2-0.4-2.5-1.6-2.5
		H78c-1,0-1.8,0.8-1.8,1.8v13.8c0,0.9-0.3,1.7-0.8,2.4c-0.1,0.1-0.1,0.1-0.2,0.2c-0.3,0.4-0.5,0.6-0.8,0.6c-0.2,0-0.4-0.1-0.5-0.3
		c-0.1-0.2-0.2-0.5-0.2-1c0.2-5.9,0.3-11.4,0.1-15.7c0-1-0.8-1.7-1.8-1.7c-0.9,0-1.9,0-2.9,0c-1.1,0-1.9,0.9-1.8,2
		c0.5,4.6,0.5,11.2-0.4,16.8c-0.3,2.1-0.1,3.1,0.6,3.9s2.2,1.2,3.9,1.2c1,0,2.6-0.5,3.6-1.5c0.9-0.9,1.8-2.2,2.5-3.8
		c0.1-0.2,0.2-0.3,0.4-0.3H78c0.3,0,0.5,0.3,0.4,0.5c-0.1,0.5-0.4,1.2-0.8,2.1C77.3,29.5,78.1,30.8,79.4,30.8z"/>
	<path class="st0" d="M53.2,5.8c0-0.8,0-3,0-3c0-0.6,0.4-0.9,1-0.8c2.9,0.3,3.8,1.5,4.3,2.6c0.2,0.4,0.2,0.9,0.2,1.2
		c0,0.4-0.3,0.8-0.8,0.8H54C53.6,6.6,53.3,6.2,53.2,5.8z"/>
</g>
</svg>
