<?xml version="1.0" encoding="utf-8"?>
<!-- Generator: Adobe Illustrator 28.1.0, SVG Export Plug-In . SVG Version: 6.00 Build 0)  -->
<svg version="1.1" id="Layer_1" xmlns="http://www.w3.org/2000/svg" xmlns:xlink="http://www.w3.org/1999/xlink" x="0px" y="0px"
	 viewBox="0 0 3000 2000" style="enable-background:new 0 0 3000 2000;" xml:space="preserve">
<style type="text/css">
	.st0{fill:#FFF200;}
</style>
<g>
	<path class="st0" d="M907.8,1021.8H986c13.7,0,24.5-12,22.8-25.5l-57.4-501.5c-2.7-23.2-22.4-40.7-45.8-40.7H797
		c-23.4,0-43,17.5-45.8,40.7l-57,501.3c-1.5,13.7,9.1,25.5,22.8,25.5h78.3c12.2,0,22.2-9.5,23-21.5l3.8-61
		c0.4-6.1,5.5-10.8,11.4-10.8h35.9c6.1,0,11.2,4.6,11.4,10.8l3.8,61C885.4,1012.3,895.5,1021.8,907.8,1021.8z M857.8,567.5
		l17.7,243.3c0.4,6.8-4.9,12.2-11.4,12.2h-24.7c-6.8,0-12-5.7-11.4-12.2l17.7-243.3C846.4,557.6,856.5,557.6,857.8,567.5z"/>
	<path class="st0" d="M1574.5,1598.9h78.3c13.7,0,24.5-12,22.8-25.5l-57.4-501.5c-2.7-23.2-22.4-40.7-45.8-40.7h-108.7
		c-23.4,0-43,17.5-45.8,40.7l-57.4,501.5c-1.5,13.7,9.1,25.5,22.8,25.5h78.3c12.2,0,22.2-9.5,23-21.5l3.8-61
		c0.4-6.1,5.5-10.8,11.4-10.8h35.9c6.1,0,11.2,4.6,11.4,10.8l3.8,61C1552.1,1589.4,1562.3,1598.9,1574.5,1598.9z M1524.5,1144.6
		l17.7,243.3c0.4,6.8-4.9,12.2-11.4,12.2h-24.7c-6.8,0-12-5.7-11.4-12.2l17.7-243.3C1513.1,1134.7,1523.2,1134.7,1524.5,1144.6z"/>
	<path class="st0" d="M1027,953.4l35-520.7c0.8-12.7,11.8-22.2,24.5-21.3l75.5,5.1c12.7,0.8,22.2,11.8,21.3,24.5l-35.2,520.7
		c-0.8,12.7-11.8,22.2-24.5,21.3l-75.5-5.1C1035.6,977.1,1026.1,966.1,1027,953.4z"/>
	<path class="st0" d="M1240.7,992.5l-30.2-520.9c-0.6-12.7,8.9-23.6,21.5-24.3l80.8-4.6c10.3-0.6,19.8,5.7,23.2,15.6
		c38.2,116,71.9,245.4,103,383.2c2.3,12.4,13.5,12,12.2-0.6c-19-143.9-43-276-65.8-375.6c-3.2-13.9,7-27.2,21.1-28.1l75.3-4.4
		c12.7-0.6,23.6,8.9,24.3,21.5l30.2,520.9c0.6,12.7-8.9,23.6-21.5,24.3l-81,4.6c-10.3,0.6-19.8-5.7-23.2-15.6
		c-38.8-115.6-72.4-245.4-102.8-383.4c-2.5-12.7-13.9-11.8-12.2,0.6c20.3,140.5,41.6,270.7,65.8,375.6c3.2,13.9-7,27.2-21.1,28.1
		l-75.3,4.4C1252.3,1014.8,1241.6,1005.1,1240.7,992.5z"/>
	<path class="st0" d="M1818.4,738.4c-30.8-24.3-69.4-36.5-124.1-36.5c-10.1,0-10.1-12.2,0-12.2c53.6,0,90.5-11.4,119.2-34
		c28.7-22.8,43-54.6,43-95.8c0-27.6-6.8-51.3-20.3-71.3c-13.5-20-32.7-35.4-57.6-46.2c-24.9-10.8-54.4-16.2-88.4-16.2h-98.7
		c-12.7,0-23,10.3-23,23v521.8c0,12.7,10.3,23,23,23h98.7c54,0,96.6-13.3,127.7-40.1s46.6-63.3,46.6-109.9
		C1864.6,797.9,1849.2,762.7,1818.4,738.4L1818.4,738.4z M1694.1,515.4c13.5,0,23.6,5.1,30.4,15.4c6.8,10.3,10.1,25.3,10.1,45.4
		c0,20.5-3.4,35.9-10.1,45.8c-6.8,9.9-16.9,15-30.4,15h-4V515.2h4V515.4z M1730.6,885.3c-8,13.1-20.3,19.4-36.5,19.4h-4v-150h4
		c15.6,0,27.6,6.1,36.1,18.6c8.4,12.4,12.7,30.6,12.7,54.4C1742.9,853,1738.9,872.2,1730.6,885.3z"/>
	<path class="st0" d="M1305.5,1346.7c-29.5-26-67.3-40.3-121.7-43.3c-10.1-0.6-9.5-12.7,0.6-12.2c53.4,3,90.9-6.3,120.9-27.4
		c29.8-21.1,46-52.1,48.1-93.3c1.5-27.6-4-51.7-16.5-72.4c-12.4-20.7-30.8-37.1-55.1-49.4c-24.3-12.2-53.4-19.2-87.4-21.1l-98.5-5.5
		c-12.7-0.6-23.4,9.1-24.3,21.7l-28.5,520.9c-0.6,12.7,9.1,23.4,21.7,24.3l98.5,5.5c54,3,97.3-8,129.8-33.1
		c32.5-25.1,50-60.8,52.5-107.2C1348.5,1408.5,1335,1372.7,1305.5,1346.7z M1193.7,1117.2c13.5,0.6,23.4,6.3,29.5,17.1
		c6.1,10.5,8.7,26,7.6,46c-1.1,20.5-5.3,35.7-12.7,45.2c-7.4,9.7-17.7,14.1-31.2,13.3l-4-0.2l6.5-121.5L1193.7,1117.2z
		 M1210.1,1488.5c-8.9,12.4-21.3,18.4-37.6,17.5l-4-0.2l8.2-149.8l4,0.2c15.6,0.8,27.4,7.8,35,20.7s11,31.2,9.5,54.9
		C1224,1457.1,1218.8,1476.1,1210.1,1488.5z"/>
	<path class="st0" d="M2054.3,992.3c-32.9,2.3-61.6-7.4-86.1-28.7c-24.5-21.3-44.1-53.6-59.1-96.8c-14.8-43.3-24.5-96.4-28.7-159.5
		c-4.2-63.1-1.9-117.1,7-161.8s24.1-79.3,45.4-103.8c21.3-24.5,48.5-37.8,81.4-40.1c32.9-2.3,61.6,7.4,86.1,28.7
		s44.1,53.6,59.1,96.8c14.8,43.3,24.5,96.4,28.7,159.5c4.2,63.1,1.9,117.1-7,161.8c-8.9,44.7-24.1,79.3-45.4,103.8
		C2114.2,976.6,2087.2,990.1,2054.3,992.3z M2047.5,895.2c9.1-0.6,14.6-15.8,16-45.8c1.5-30-0.2-81.2-5.1-154
		c-4.9-72.8-10.1-124.1-15.6-153.4s-12.9-43.9-21.9-43.3c-9.3,0.6-14.6,15.8-16,45.8s0.2,81.2,5.1,154
		c4.9,72.8,10.1,124.1,15.6,153.4C2031.1,881.5,2038.5,895.8,2047.5,895.2L2047.5,895.2z"/>
	<path class="st0" d="M2632.8,484c2.5-13.3-7-26-20.7-27.2l-85.5-7.2c-12.9-1.1-24.1,8.7-24.9,21.5c-6.8,110.3-9.5,266.1-11.2,431.5
		c-0.8,12.2-11,10.8-12-1.1c-9.1-110.1-17.5-217.1-19-286.3c-0.2-11.8-9.3-21.3-21.1-22.4l-19.6-1.7l-19.6-1.7
		c-11.8-1.1-22.4,7-24.5,18.6c-12.9,67.9-39,172-66,279.1c-3.2,11.4-13.3,11.2-12-1.1c25.7-163.3,48.7-317.3,60.3-427.3
		c1.3-12.9-8.2-24.3-20.9-25.3l-85.5-7.2c-13.5-1.1-25.1,9.7-24.9,23.4c3,178.5-6.8,351.5-34,516.5c-2.1,13.3,7.4,25.5,20.7,26.8
		l116.5,9.7c11,0.8,21.1-5.9,24.1-16.5c19.4-67.7,34-140.7,44.3-218c0.6-4.4,3.4-5.9,7.2-5.9c3.8,0.6,6.3,2.5,6.1,7
		c-2.7,78.1-0.4,152.3,7.6,222.4c1.3,10.8,10.1,19.2,20.9,20.3l116.5,9.7c13.5,1.1,24.9-9.5,24.9-23
		C2581.4,831.9,2600.4,659.7,2632.8,484L2632.8,484z"/>
	<path class="st0" d="M679.5,974.1c-4.2-7.2-6.5-16-7.2-26.8L666.4,834c-1.9-36.7-13.7-64.4-35.7-82.7c-21.7-18.4-53.8-26.4-96-24.3
		l-26.8,1.5c-8.9,0.4-9.5-11.6-0.6-12.2c51.9-2.7,85.5-16.2,112.5-41.1c26.8-24.9,39-59.9,36.7-104.7c-1.5-29.1-9.3-54-23.4-74.7
		c-14.1-20.7-33.5-36.1-58.4-46c-24.9-10.1-54-14.1-87.6-12.4l-99.8,5.3c-12,0.6-21.1,10.8-20.5,22.8l27.4,523.7
		c0.6,12,10.8,21.1,22.8,20.5l78.3-4c12-0.6,21.1-10.8,20.5-22.8L506,796.7c-0.4-9.1,8.2-16,16.7-13.1c4.4,1.5,8,3.8,11,6.8
		c6.1,6.5,9.3,16.5,10.1,30l6.5,125.5c1.1,21.1,4.9,35.7,11.2,43.7c6.3,8,17.1,11.6,32.3,11l76.4-4c9.9-0.4,15.8-11.6,10.3-20
		C680.1,975.4,679.7,974.7,679.5,974.1z M524,542c7.2,11,10.8,28.3,12,50.8s-1.1,40.1-6.5,51.9c-4.2,8.9-14.6,18.1-23.4,18.8l-7,0.4
		l-7.2-137.8l7-0.4C507.9,525.3,518.9,534.2,524,542z"/>
	<path class="st0" d="M2023.1,1544c-4.2-7-6.8-15.8-7.6-26.8l-8-113.3c-2.5-36.7-15-63.9-37.1-81.9s-54.2-25.5-96.4-22.4l-26.8,1.9
		c-8.9,0.6-9.7-11.6-0.8-12.2c51.7-3.6,85.2-17.9,111.6-43.3c26.4-25.5,38-60.6,34.8-105.3c-2.1-29.1-10.3-53.8-24.9-74.3
		c-14.3-20.5-34.2-35.4-59.3-44.9c-25.1-9.7-54.4-13.3-87.8-10.8l-99.8,7.2c-12,0.8-20.9,11.2-20,23.2l37.1,523.1
		c0.8,12,11.2,20.9,23.2,20l78.1-5.5c12-0.8,20.9-11.2,20-23.2l-13.3-185.9c-0.6-9.1,8-16,16.5-13.5c4.4,1.5,8.2,3.6,11,6.5
		c6.1,6.3,9.7,16.2,10.5,29.8l8.9,125.3c1.5,21.1,5.5,35.4,12,43.5s17.3,11.4,32.5,10.3l76.4-5.5c9.9-0.6,15.6-12,9.9-20.3
		C2023.9,1545.3,2023.3,1544.6,2023.1,1544z M1859.6,1114.8c7.4,11,11.4,28.1,12.9,50.6c1.5,22.6-0.2,40.1-5.7,52.1
		c-4,9.1-14.1,18.6-23,19.2l-7,0.4l-9.7-137.6l7-0.4C1843.1,1098.6,1854.3,1107.2,1859.6,1114.8z"/>
</g>
<image style="overflow:visible;" width="984" height="563" xlink:href="rainbowBar.png"  transform="matrix(1.1178 -0.1326 0.1326 1.1178 912.7241 750.5857)">
</image>
</svg>
