<?xml version="1.0" encoding="utf-8"?>
<!-- Generator: Adobe Illustrator 28.1.0, SVG Export Plug-In . SVG Version: 6.00 Build 0)  -->
<svg version="1.1" id="Layer_1" xmlns="http://www.w3.org/2000/svg" xmlns:xlink="http://www.w3.org/1999/xlink" x="0px" y="0px"
	 viewBox="0 0 3000 2000" style="enable-background:new 0 0 3000 2000;" xml:space="preserve">
<style type="text/css">
	.st0{fill:#FFF200;}
</style>
<g>
	<path class="st0" d="M877,1554.7c-32.2-2-58.7-14.1-79.8-36.8c-21-22.5-35.9-55.1-45-97.7c-9-42.6-11.7-94-8.1-154.4
		c3.7-60.4,12.4-111.1,26.3-152.4c14.1-41.2,32.7-71.7,56.4-91.7c23.4-19.9,51.4-28.9,83.6-26.9c25.1,1.5,47.2,9.9,66.2,25.1
		c19,15.2,33.3,36,42.8,62.2c9.5,26.2,13.2,56,11.2,89.1c-0.5,9.7-2,19.9-4.2,30.6l-0.9,4.6c-2.6,12.6-14.1,21.4-26.9,20.7
		l-56.7-3.5c-14.3-0.9-25.2-13.2-24.3-27.4l0.4-7.3c2.4-40.4,2-58.9,0-76.1c-2-17-7-25.8-14.6-26.3c-6.6-0.4-12.3,5.3-16.8,17
		s-8.2,30.9-11.2,57.4c-2.9,26.5-5.7,63.9-8.6,111.8c-2.9,48.1-4.4,85.4-4.8,112.2c-0.4,26.7,1.1,46.1,4.2,58.4
		c3.1,12.3,8.1,18.5,14.6,19c7.7,0.5,13.5-7.7,17.6-24.3s6.6-32,9-72.5l0.5-10.2c0.9-14.3,13.2-25.2,27.4-24.3l56.7,3.5
		c12.8,0.7,23.1,10.4,24.3,23.2c0.2,1.6,0.4,3.5,0.5,5.3c0.9,10.8,1.1,21,0.5,30.7c-2,33.3-9.3,62.4-21.8,87.3
		c-12.4,24.9-29.1,43.7-49.9,56.7C924.9,1550.7,902.1,1556.4,877,1554.7L877,1554.7z"/>
	<path class="st0" d="M1659.3,1554.4l42.3-494.9c0.9-11.3,11-19.9,22.5-18.8l94.2,8.1c35.3,2.9,64,15.6,86.4,37.9
		c22.3,22.1,37.7,53.8,46.3,94.6c8.6,40.8,10.4,90.7,5.3,149.3c-4.9,58.7-15.2,107.6-30.6,146.4c-15.4,38.8-36,67.3-61.7,85.4
		c-25.8,18.1-56.2,25.6-91.5,22.7l-94.2-8.1C1666.8,1575.8,1658.2,1565.7,1659.3,1554.4L1659.3,1554.4z M1784.1,1493.3
		c9.1,0.7,16.6-4.2,22.5-15c5.9-10.8,10.8-28.7,15-54c4.2-25.1,8.2-59.8,12.1-104.3c3.8-44.5,5.7-79.4,5.9-104.8
		c0.2-25.4-1.8-44.1-5.7-55.6c-3.8-11.7-10.4-17.9-19.6-18.7l-16.3-1.5l-30.2,352.4L1784.1,1493.3z"/>
	<path class="st0" d="M2069,1551.4l-4.8-161c-0.2-5.7-4.9-10.2-10.6-10.1l-26.5,0.7c-5.3,0.2-9.9-3.7-10.6-9l-44.3-312.5
		c-1.6-12.3,7.5-23.2,19.9-23.6l72.8-2.2c10.8-0.4,20.1,7.7,21.2,18.5l28,264.6c1.3,9.9,10.4,10.1,11.5-0.4l11.3-265.7
		c0.5-10.8,9.3-19.6,20.1-19.8l72.8-2.2c12.4-0.4,22.3,10.1,21.2,22.3l-25.4,314.7c-0.4,5.3-4.8,9.3-10.1,9.5l-26.5,0.7
		c-5.7,0.2-10.2,4.9-10.1,10.6l4.8,161c0.4,11.5-8.6,21-20.1,21.4l-73.7,2.2C2078.8,1571.9,2069.3,1562.8,2069,1551.4z"/>
	<path class="st0" d="M1229.6,1608.1h74.3c13,0,23.1-11.3,21.6-24.3l-54.3-475.1c-2.6-22-21.2-38.6-43.4-38.6h-102.8
		c-22.1,0-40.8,16.6-43.4,38.6l-54.3,475.1c-1.5,13,8.6,24.3,21.6,24.3h74.3c11.5,0,21-9,21.8-20.5l3.5-57.6
		c0.4-5.7,5.1-10.2,10.8-10.2h34c5.7,0,10.6,4.4,10.8,10.2l3.5,57.6C1208.5,1599.2,1218,1608.1,1229.6,1608.1L1229.6,1608.1z
		 M1182.2,1177.7L1199,1408c0.5,6.2-4.6,11.7-10.8,11.7h-23.4c-6.4,0-11.3-5.3-10.8-11.7l16.8-230.3
		C1171.6,1168.3,1181.1,1168.3,1182.2,1177.7z"/>
	<path class="st0" d="M1351.6,1527.5l-13-494.2c-0.4-12.1,9.1-22,21.2-22.3l76.7-2c9.9-0.2,18.7,6,21.4,15.6
		c32.7,111.1,60.9,234.6,86,366.1c1.8,11.9,12.4,11.9,11.5-0.4c-13.7-136.9-32.6-262.7-51-357.7c-2.6-13.2,7.3-25.6,20.9-26
		l71.4-1.8c12.1-0.4,22,9.1,22.3,21.2l13,494.2c0.4,12.1-9.1,22-21.2,22.3l-76.8,2c-9.9,0.2-18.7-6-21.4-15.4
		c-33.3-110.7-61.3-234.6-86-366.1c-2-12.1-12.8-11.5-11.5,0.4c15,133.6,31.3,257.6,51,357.7c2.6,13.2-7.3,25.6-20.9,26l-71.4,1.8
		C1361.8,1549.1,1351.8,1539.5,1351.6,1527.5z"/>
	<path class="st0" d="M692,998.7c-32.2,1.1-59.8-8.4-82.9-28.9c-23.1-20.5-41.2-51.4-54.2-92.9c-13-41.5-20.7-92.6-22.9-153
		s1.6-111.8,11.7-154.2s25.8-74.6,47.2-96.6c21.4-22.1,48.3-33.7,80.7-34.9c25.1-0.9,47.9,5.3,68.4,18.7s36.6,32.6,48.7,57.8
		c11.9,25.2,18.5,54.3,19.8,87.6c0.4,9.7,0,19.9-1.1,30.7l-0.5,4.6c-1.3,12.8-11.9,22.7-24.9,23.2l-56.7,2
		c-14.3,0.5-26.3-10.6-26.9-24.9l-0.2-7.3c-1.5-40.4-3.7-58.9-7.3-75.7c-3.7-16.8-9.3-25.1-17-24.7c-6.6,0.2-11.7,6.4-15,18.7
		c-3.5,12.3-5.3,31.7-5.5,58.2c-0.4,26.7,0.4,64,2.2,112.2c1.8,48.1,3.8,85.4,6,112s5.5,45.7,9.9,57.6c4.2,11.9,9.7,17.7,16.5,17.4
		c7.7-0.4,12.8-9,15.2-26c2.4-17,3.5-32.6,2-73l-0.4-10.2c-0.5-14.3,10.6-26.3,24.9-26.9l56.7-2c12.8-0.5,24,8.2,26.3,20.7
		c0.4,1.6,0.7,3.5,0.9,5.1c2,10.6,3.1,20.9,3.5,30.6c1.3,33.3-3.3,62.9-13.4,88.9c-10.1,26-24.9,46.5-44.3,61.3
		C739.4,989.9,717.1,997.8,692,998.7L692,998.7z"/>
	<path class="st0" d="M838.4,915.8l19.2-496.4c0.4-11.5,10.1-20.3,21.6-19.9l73.7,2.9c11.5,0.4,20.3,10.1,19.9,21.6l-7.3,187.9
		c-0.2,5.7,4.2,10.6,9.9,10.8l17.7,0.5c5.7,0.2,10.6-4.2,10.8-9.9l7.3-187.9c0.4-11.5,10.1-20.3,21.6-19.9l73.7,2.9
		c11.5,0.4,20.3,10.1,19.9,21.6l-19.2,496.4c-0.4,11.5-10.1,20.3-21.6,19.9l-73.7-2.9c-11.5-0.4-20.3-10.1-19.9-21.6l7.3-187.9
		c0.2-5.7-4.2-10.6-9.9-10.8l-17.7-0.7c-5.7-0.2-10.6,4.2-10.8,9.9l-7.3,187.9c-0.4,11.5-10.1,20.3-21.6,19.9l-73.7-2.9
		C846.8,936.9,837.8,927.2,838.4,915.8z"/>
	<path class="st0" d="M1602.1,953.2c-31.3,0-57.8-11-79.6-32.7c-21.8-21.8-38.2-53.6-49.6-95.3s-16.8-92.6-16.8-152.6
		c0-60,5.7-110.9,16.8-152.6c11.3-41.7,27.8-73.5,49.6-95.3c21.8-21.8,48.3-32.7,79.6-32.7c31.3,0,57.8,11,79.6,32.7
		c21.8,21.8,38.2,53.6,49.6,95.3s16.8,92.6,16.8,152.6c0,60-5.7,110.9-16.8,152.6c-11.3,41.7-27.8,73.5-49.6,95.3
		C1659.9,942.2,1633.3,953.2,1602.1,953.2z M1602.1,861c8.8,0,14.6-14.1,18.1-42.3c3.3-28.2,4.9-76.8,4.9-146s-1.6-117.8-4.9-146
		c-3.3-28.2-9.3-42.3-18.1-42.3s-14.8,14.1-18.1,42.3s-4.9,76.8-4.9,146s1.6,117.8,4.9,146C1587.2,846.7,1593.3,861,1602.1,861z"/>
	<path class="st0" d="M2374.7,967.3l73.9-6.4c13-1.1,22.1-13.4,19.4-26l-95.5-468.6c-4.4-21.8-24.3-36.6-46.5-34.8l-102.5,9
		c-22.1,2-39.2,20.1-39.7,42.3l-12.8,478.1c-0.4,13,10.8,23.4,23.6,22.3l73.9-6.4c11.5-0.9,20.1-10.8,19.9-22.3l-1.5-57.8
		c-0.2-5.7,4.2-10.6,9.9-11.2l33.8-2.9c5.7-0.5,10.8,3.5,11.7,9.3l8.6,57.1C2352.9,960.1,2363.2,968.3,2374.7,967.3L2374.7,967.3z
		 M2290.2,542.6l36.8,228.1c1.1,6.2-3.5,12.1-9.9,12.6l-23.2,2c-6.2,0.5-11.7-4.4-11.9-10.6l-3.3-231.1
		C2278.4,534.2,2288.1,533.3,2290.2,542.6L2290.2,542.6z"/>
	<path class="st0" d="M1453.7,946.8c-4-6.8-6.2-15.2-6.8-25.4l-5.7-107.4c-1.8-34.8-13.2-60.9-33.8-78.3
		c-20.7-17.4-51-25.1-90.9-22.9L1291,714c-8.2,0.4-9-11-0.5-11.5c49.2-2.6,81-15.4,106.5-39.2c25.4-23.6,37-56.7,34.8-99.2
		c-1.5-27.6-8.8-51.2-22.1-70.8c-13.4-19.6-31.8-34-55.4-43.5s-51.2-13.5-83.1-11.7l-94.6,4.9c-11.3,0.5-20.1,10.2-19.4,21.6
		l26.2,496.2c0.5,11.3,10.2,20.1,21.6,19.4l74.5-3.8c11.3-0.5,20.1-10.2,19.4-21.6l-9.3-176.4c-0.4-8.6,7.9-15.2,15.9-12.4
		c4.2,1.5,7.7,3.5,10.4,6.4c5.7,6,9,15.6,9.5,28.4l6.2,118.9c1.1,19.9,4.6,33.7,10.6,41.3c6,7.7,16.3,11.2,30.6,10.2l72.5-3.8
		c9.3-0.5,15-11,9.9-19C1454.6,948,1454,947.5,1453.7,946.8z M1306.2,537.5c6.8,10.4,10.2,26.7,11.3,48.3
		c1.1,21.6-0.9,37.9-6.2,49.2c-4,8.4-13.7,17.2-22.1,17.7l-6.6,0.4l-7-130.4l6.6-0.4C1291,521.8,1301.5,530,1306.2,537.5z"/>
	<path class="st0" d="M2122.4,463.9l-81-6.4c-9.9-0.7-19,5.7-21.6,15.2l-60,217.5c-2,6-6.8,5.3-7.7-0.5l-25.4-224.3
		c-1.1-9.9-9.1-17.6-19-18.3l-81-6.4c-11.3-0.9-21.4,7.7-22.3,19l-38.8,495.1c-0.9,11.3,7.7,21.4,19,22.3l79.2,6.2
		c12.1,0.9,22.5-8.8,22.3-20.9l-6-468.4c-0.2-15.2,11.9-13.4,12.4,1.3l30.7,345.4c0.4,5.1,4.4,9,9.5,9.5l20.9,1.6
		c5.1,0.4,9.7-2.9,10.8-7.9l84-336.5c2.9-14.3,15.2-14.1,12.6,0.7l-78.9,461.8c-2,12.1,6.6,23.2,18.8,24.2l79.2,6.2
		c11.3,0.9,21.4-7.7,22.3-19l38.8-495.1C2142.3,474.9,2133.9,464.9,2122.4,463.9L2122.4,463.9z"/>
</g>
<g>
	
		<image style="overflow:visible;opacity:0.5;" width="710" height="649" xlink:href="6EC4A4C78F5C1234.png"  transform="matrix(1 0 0 1 1191.9399 669.59)">
	</image>
	<g>
		
			<image style="overflow:visible;" width="490" height="447" xlink:href="chromaCandy.png"  transform="matrix(1.3211 0 0 1.3211 1216.3685 692.4832)">
		</image>
	</g>
</g>
</svg>
