<?xml version="1.0" encoding="utf-8"?>
<!-- Generator: Adobe Illustrator 28.1.0, SVG Export Plug-In . SVG Version: 6.00 Build 0)  -->
<svg version="1.1" id="Layer_1" xmlns="http://www.w3.org/2000/svg" xmlns:xlink="http://www.w3.org/1999/xlink" x="0px" y="0px"
	 viewBox="0 0 2000 1000" style="enable-background:new 0 0 2000 1000;" xml:space="preserve">
<style type="text/css">
	.st0{fill:#FFF200;}
</style>
<g>
	<path class="st0" d="M157.5,545.1c-29.2,1.2-54.5-5.3-76.3-19.4c-21.6-14.1-38.8-34.5-51.4-61.4c-12.4-26.9-19.6-59.6-21-98
		c-0.4-10.8,0-22.7,1.2-35.7c0.2-2,0.4-3.9,0.6-5.7c1.6-15.9,14.7-28,30.8-28.6l48.4-1.8c17.8-0.6,32.7,13.1,33.5,30.8
		c0.4,10.6,0.8,21.2,1.2,32c1.2,30.8,3.5,52.9,6.5,65.9c3.1,13.1,7.8,19.4,14.1,19.2c6.3-0.2,10.4-6.9,12.4-19.8
		c2-12.9,2.4-35.1,1.2-66.5l-15.5-392c-0.6-17.8,13.1-32.7,30.8-33.5l64.3-2.4c17.8-0.6,32.7,13.1,33.5,30.8l14.5,366.3
		c1.8,45.7-2,84.7-11.2,117.1c-9.4,32.4-23.9,57.3-43.9,74.7C211.2,534.7,186.7,543.8,157.5,545.1L157.5,545.1z"/>
	<path class="st0" d="M450.5,475.7c-30.2-2-55.9-12.7-77.3-31.4c-21.4-19-37.1-44.9-47.1-78s-13.7-71.2-10.6-114.7L341-123.1
		c0.8-12.7,11.8-22.4,24.7-21.4l82.2,5.3c12.7,0.8,22.4,11.8,21.4,24.7l-27.5,404.7c-2,29.2-1.6,50,0.8,62.9
		c2.7,12.9,7.6,19.4,14.9,20c7.3,0.4,13.3-5.3,17.6-17.8c4.3-12.2,7.3-33.1,9.4-62L512-111.4c0.8-12.7,11.8-22.4,24.7-21.4l82.2,5.5
		c12.7,0.8,22.4,11.8,21.4,24.7L614.8,272c-4.5,65.5-21.6,116.7-51.2,153.5C534,462,496.2,478.8,450.5,475.7z"/>
	<path class="st0" d="M1467.4,487.5l-25.9-564.9c-0.6-12.9,9.2-23.7,22-24.1l82.2-3.9c12.9-0.6,23.7,9.2,24.1,22l20.8,453.4
		c0.2,6.3,5.7,11.2,12,11l81-3.7c12.9-0.6,23.7,9.2,24.1,22l3.1,65.1c0.6,12.9-9.2,23.7-22,24.1l-209.4,9.6
		C1473.1,499,1467.6,493.9,1467.4,487.5L1467.4,487.5z"/>
	<path class="st0" d="M1748.6,439l-64.1-550.2c-1.4-12.7,7.6-24.3,20.2-25.7l196.7-22.9c12.7-1.4,24.3,7.6,25.7,20.2l9,76.3
		c0.8,6.3-3.9,12-10.2,12.9l-92,10.8c-6.3,0.8-10.8,6.5-10.2,12.9l11.6,100.6c0.8,6.3,6.5,10.8,12.9,10.2l58-6.7
		c6.3-0.8,12,3.9,12.9,10.2l10.2,87.8c0.8,6.3-3.9,12-10.2,12.9l-58,6.7c-6.3,0.8-10.8,6.5-10.2,12.9l13.7,117.5
		c0.8,6.3,6.5,10.8,12.9,10.2l92-10.8c6.3-0.8,12,3.9,12.9,10.2l9,76.3c1.4,12.7-7.6,24.3-20.2,25.7l-196.7,22.4
		C1761.5,460.8,1750.1,451.6,1748.6,439L1748.6,439z"/>
	<path class="st0" d="M1032.1,1083l4.7-551.6c0.2-13.5,11-24.3,24.5-24.1l80,0.6c13.5,0.2,24.3,11,24.1,24.5l-4.7,551.6
		c-0.2,13.5-11,24.3-24.5,24.1l-80-0.6C1042.7,1107.3,1031.9,1096.3,1032.1,1083z"/>
	<path class="st0" d="M1373.5,197.1c-31.2-27.3-71.4-42-129.2-44.7c-10.6-0.4-10-13.3,0.6-12.9c56.5,2.7,96.1-7.3,127.5-30
		c31.4-22.4,48.2-55.5,50.2-99c1.4-29.2-4.5-54.5-17.8-76.3c-13.3-21.8-32.9-39-58.6-51.6s-56.5-19.8-92.6-21.6l-104.3-4.9
		c-13.5-0.6-24.9,9.8-25.5,23.1l-26.3,551c-0.6,13.5,9.8,24.9,23.1,25.5l104.3,4.9c57.1,2.7,102.6-9.2,136.9-35.9
		c34.1-26.7,52.4-64.7,54.7-113.7C1419.5,262.2,1405,224.5,1373.5,197.1L1373.5,197.1z M1253.8-44.7c14.3,0.6,24.7,6.5,31.4,17.8
		c6.5,11.2,9.4,27.3,8.4,48.6c-1,21.6-5.3,37.8-13.1,48c-7.6,10.2-18.6,14.9-32.9,14.3l-4.3-0.2l6.1-128.6L1253.8-44.7z
		 M1273.8,347.7c-9.2,13.3-22.4,19.6-39.6,18.8l-4.3-0.2l7.6-158.6l4.3,0.2c16.5,0.8,29,8,37.1,21.4c8.2,13.5,11.8,32.9,10.6,58
		C1288.2,314.5,1282.9,334.5,1273.8,347.7z"/>
	<path class="st0" d="M466,1147.7c-35.9-3.1-65.1-17.3-88-43.1s-38.6-62.4-47.5-110.2c-9-47.8-10.6-105.3-5.1-172.4
		c5.5-67.1,16.7-123.7,33.5-169.2S397.3,573.6,424,552s58-30.8,93.9-28c28,2.2,52.2,12.2,73.3,29.8c20.8,17.6,36.3,41,46.1,70.4
		c9.8,29.6,13.3,62.6,10.2,99.8c-0.8,10.8-2.7,22-5.3,33.9l-1.2,5.1c-3.3,14.1-16.3,23.5-30.6,22.4l-63.3-5.3
		c-15.9-1.2-27.8-15.3-26.3-31.2l0.6-8.2c3.7-44.9,3.7-65.7,1.8-84.9c-1.8-19-7.1-29-15.5-29.6c-7.3-0.6-13.9,5.5-19.2,18.6
		c-5.3,13.1-10,34.3-13.9,63.7c-3.9,29.6-8,71-12.4,124.5c-4.5,53.5-7.1,95.1-8.2,124.9c-1,29.8,0,51.4,3.3,65.1
		c3.1,13.7,8.4,20.8,15.9,21.4c8.6,0.6,15.3-8.2,20.2-26.7s8.2-35.7,11.8-80.6l1-11.4c1.2-15.9,15.3-27.8,31.2-26.3l63.1,5.3
		c14.1,1.2,25.5,12.2,26.5,26.5c0.2,1.8,0.2,3.9,0.4,5.9c0.6,12,0.6,23.5-0.2,34.3c-3.1,36.9-11.8,69.2-26.5,96.7
		s-33.7,48.2-57.1,61.8C519.7,1144.2,494,1149.9,466,1147.7L466,1147.7z"/>
	<path class="st0" d="M690.5,1132l-20.8-553.6c-0.4-12.9,9.4-23.5,22.2-24.1l82.2-3.1c12.9-0.4,23.5,9.4,24.1,22.2l8,209.6
		c0.2,6.3,5.7,11.4,12,11.2l19.8-0.8c6.3-0.2,11.4-5.7,11.2-12l-8-209.6c-0.4-12.9,9.4-23.5,22.2-24.1l82.2-3.1
		c12.9-0.4,23.5,9.4,24.1,22.2l20.8,553.6c0.4,12.9-9.4,23.5-22.2,24.1l-82.2,3.1c-12.9,0.4-23.5-9.4-24.1-22.2L854,915.9
		c-0.2-6.3-5.7-11.4-12-11.2l-19.8,0.8c-6.3,0.2-11.4,5.7-11.2,12l8,209.6c0.4,12.9-9.4,23.5-22.2,24.1l-82.2,3.1
		C701.7,1154.6,690.9,1144.6,690.5,1132z"/>
	<path class="st0" d="M1018.7-114.1l-90.6,4.3c-11,0.6-20.2,8.8-21.8,19.8l-35.7,249.4c-1.4,6.9-6.9,6.7-8.6,0.4L802.4-84.7
		c-2.7-10.8-12.4-18.2-23.7-17.6L688.1-98c-12.9,0.6-22.7,11.4-22,24.3l26.7,553c0.6,12.9,11.4,22.7,24.3,22l88.6-4.3
		c13.7-0.6,23.7-12.9,21.8-26.3L755-46.7c-2.2-16.7,11.2-16.5,14.1-0.4l82.4,377.9c1.2,5.5,6.1,9.4,11.8,9.2l23.3-1
		c5.7-0.2,10.2-4.5,11-10.2l45.7-384.1c1.2-16.3,14.7-17.8,14.1-1l-22.4,522c-0.6,13.7,10.6,24.7,24.3,24.1l88.6-4.3
		c12.9-0.6,22.7-11.4,22-24.3L1043.2-92C1042.3-104.9,1031.3-114.7,1018.7-114.1L1018.7-114.1z"/>
	<path class="st0" d="M1501.1,651c-12.9-30-31.6-52.7-56.5-68.2s-55.3-23.1-91.2-23.1h-105.5c-12.9,0-23.1,10.4-23.1,23.1v554.1
		c0,12.9,10.4,23.1,23.1,23.1h82.4c12.9,0,23.1-10.4,23.1-23.1V973.8c0-6.1,5.1-11,11.2-11.4c47.1-2.4,84.5-20.2,111.8-53.3
		c29.4-35.7,44.1-85.1,44.1-148C1520.5,717.7,1514.2,681,1501.1,651L1501.1,651z M1384.2,840.6c-5.1,15.7-14.1,23.7-26.5,23.7h-4.3
		V658.3h4.3c12.7,0,21.4,8,26.5,23.7c5.1,15.7,7.8,42.2,7.8,79.4C1391.9,798.3,1389.3,824.9,1384.2,840.6z"/>
	<path class="st0" d="M1732.7,1145c-29.6,3.1-56.3-0.4-80-10.6c-23.7-10.2-43.1-25.9-58-46.9c-14.9-21.2-23.9-46.5-26.9-76.1
		c-1-10.8-1.8-13.9-1.4-27.5c0.2-5.5,0.4-11.8,0.8-17.8c0.8-11.2,9.4-20.4,20.6-21.6l74.3-7.8c13.1-1.4,24.5,8.4,25.5,21.4
		c2.4,32,6.7,54.9,12.9,68.6c5.3,11.6,12.4,16.7,21.4,15.9c6.7-0.6,11.6-4.7,14.7-11.8c3.1-7.1,3.9-16.7,2.7-28.8
		c-2.2-21-10.2-40-24.1-56.9s-34.3-37.1-61.4-60.8c-23.3-20-42.4-37.5-57.1-52.7c-14.9-15.1-28-33.5-39.4-54.9
		c-11.4-21.4-18.6-45.7-21.4-72.4c-3.5-32.4-0.2-61.8,9.8-88.6c9.8-26.5,25.5-48,46.7-64.3c21.2-16.3,46.5-25.9,75.5-29
		c28.4-2.9,54.7,1,78.8,12s43.9,28,59.2,50.8c15.3,22.9,24.5,49.4,27.8,79.4c1,9.6,1.4,16.1,0.8,26.5c-0.2,3.5-0.6,7.1-0.8,10.8
		c-1,11-9.8,19.6-20.6,20.8l-74.3,7.8c-12.7,1.2-24.1-8-25.5-20.6l-1.6-15.3c-2.4-23.9-6.5-41.6-12-53.5
		c-5.5-11.8-12.7-17.1-21-16.3c-6.9,0.6-11.6,5.9-14.3,15.3c-2.9,9.6-3.3,22.2-1.6,38.4c3.1,29,11.6,54.7,25.7,77.1
		c10,15.9,23.5,34.3,40.6,55.3c13.5,16.7,29.4,31.6,46.5,44.7c12.9,10,23.9,19.2,33.1,27.3c14.3,13.1,27.1,28.8,38.6,46.9
		s18.4,39.2,20.8,62.6c2.7,26.3-1,50.8-11.4,72.9c-10.4,22.2-26.3,40.2-47.8,54.1C1787,1133.4,1761.7,1142,1732.7,1145L1732.7,1145z
		"/>
</g>
</svg>
